<svg id="Слой_1" data-name="Слой 1" xmlns="http://www.w3.org/2000/svg" viewBox="0 0 169.9 94.53"><defs><style>.cls-1,.cls-2{fill:#404d58;}.cls-2{fill-rule:evenodd;}</style></defs><rect class="cls-1" x="21.6" y="44.75" width="5" height="18.42"/><rect class="cls-1" x="51.59" y="53.31" width="5" height="18.42"/><path class="cls-2" d="M44.09,12.65h0A22.5,22.5,0,0,0,21.6,35.15v3.76h5V35.15a17.5,17.5,0,0,1,17.49-17.5h0a17.5,17.5,0,0,1,17.5,17.5V53.29h5V35.15A22.5,22.5,0,0,0,44.09,12.65Z"/><rect class="cls-1" x="41.59" y="71.72" width="5" height="5.87"/><rect class="cls-1" x="41.59" y="47.52" width="5" height="18.32"/><path class="cls-2" d="M36.6,39.81a7.5,7.5,0,1,1,15,0v7.67h5V39.81a12.5,12.5,0,1,0-25,0V71.73h5V39.81Z"/><path class="cls-1" d="M89.48,64.8H83V77.57h-1.8V63.18h8.27Z"/><path class="cls-1" d="M95.19,77.74C92,77.74,90,75.82,90,71.17V69.58C90,64.93,92,63,95.19,63s5.22,1.92,5.22,6.57v1.59C100.41,75.82,98.38,77.74,95.19,77.74Zm-3.42-6.57c0,3.56,1.21,4.94,3.42,4.94s3.42-1.38,3.42-4.94V69.58c0-3.57-1.21-4.94-3.42-4.94S91.77,66,91.77,69.58Z"/><path class="cls-1" d="M105,72.08v5.49h-1.8V63.18h4.59c3.32,0,5.24,1.66,5.24,4.46s-1.9,4.44-5.24,4.44Zm2.79-1.62c2.45,0,3.45-1,3.45-2.82s-1-2.84-3.45-2.84H105v5.66Z"/><path class="cls-1" d="M120,77.74c-3.19,0-5.22-1.92-5.22-6.57V69.58c0-4.65,2-6.57,5.22-6.57s5.21,1.92,5.21,6.57v1.59C125.19,75.82,123.17,77.74,120,77.74Zm-3.42-6.57c0,3.56,1.21,4.94,3.42,4.94s3.42-1.38,3.42-4.94V69.58c0-3.57-1.21-4.94-3.42-4.94s-3.42,1.37-3.42,4.94Z"/><path class="cls-1" d="M126.45,80.28V75.94h.62a4.7,4.7,0,0,0,1.53-2.48,26.41,26.41,0,0,0,.68-7V63.18h8.64V75.94h1.79v4.34h-1.79V77.57h-9.68v2.71Zm2.92-4.34h6.76V64.8h-5v1.67a26,26,0,0,1-.88,7.85A5.15,5.15,0,0,1,129.37,75.94Z"/><path class="cls-1" d="M90.08,39,85.2,50.88c-.81,2-1.66,2.57-4.11,2.57V51.81c1.43,0,2-.14,2.57-1.57l.07-.17L78.81,39h2l3.88,8.86L88.21,39Z"/><path class="cls-1" d="M98.17,47.89,102.44,39h1.77V53.29h-1.79V42.79L98.93,50.3H97.34l-3.43-7.45V53.29H92.13V39h1.74Z"/><path class="cls-1" d="M109.51,45.07h6.15V39h1.78V53.29h-1.78v-6.6h-6.15v6.6h-1.78V39h1.78Z"/><path class="cls-1" d="M122.75,39v5.66h2.43c3.67,0,4.94,2.26,4.94,4.34s-1.27,4.32-4.94,4.32H121V39Zm0,7.28v5.42h2.43c2.16,0,3.15-1.14,3.15-2.7s-1-2.72-3.15-2.72Zm10.79,7h-1.78V39h1.78Z"/><path class="cls-1" d="M138.85,39V49.74L145.66,39h1.49V53.29h-1.78V42.62L138.6,53.29h-1.53V39ZM146,35c0,2.08-1.33,3-3.61,3s-3.63-.87-3.63-3h1.7c0,.83.35,1.66,1.93,1.66s1.93-.83,1.93-1.66Z"/><path class="cls-1" d="M90.08,39,85.2,50.88c-.81,2-1.66,2.57-4.11,2.57V51.81c1.43,0,2-.14,2.57-1.57l.07-.17L78.81,39h2l3.88,8.86L88.21,39Z"/><path class="cls-1" d="M98.17,47.89,102.44,39h1.77V53.29h-1.79V42.79L98.93,50.3H97.34l-3.43-7.45V53.29H92.13V39h1.74Z"/><path class="cls-1" d="M109.51,45.07h6.15V39h1.78V53.29h-1.78v-6.6h-6.15v6.6h-1.78V39h1.78Z"/><path class="cls-1" d="M122.75,39v5.66h2.43c3.67,0,4.94,2.26,4.94,4.34s-1.27,4.32-4.94,4.32H121V39Zm0,7.28v5.42h2.43c2.16,0,3.15-1.14,3.15-2.7s-1-2.72-3.15-2.72Zm10.79,7h-1.78V39h1.78Z"/><path class="cls-1" d="M138.85,39V49.74L145.66,39h1.49V53.29h-1.78V42.62L138.6,53.29h-1.53V39ZM146,35c0,2.08-1.33,3-3.61,3s-3.63-.87-3.63-3h1.7c0,.83.35,1.66,1.93,1.66s1.93-.83,1.93-1.66Z"/><path class="cls-1" d="M89.48,64.8H83V77.57h-1.8V63.18h8.27Z"/><path class="cls-1" d="M95.19,77.74C92,77.74,90,75.82,90,71.17V69.58C90,64.93,92,63,95.19,63s5.22,1.92,5.22,6.57v1.59C100.41,75.82,98.38,77.74,95.19,77.74Zm-3.42-6.57c0,3.56,1.21,4.94,3.42,4.94s3.42-1.38,3.42-4.94V69.58c0-3.57-1.21-4.94-3.42-4.94S91.77,66,91.77,69.58Z"/><path class="cls-1" d="M105,72.08v5.49h-1.8V63.18h4.59c3.32,0,5.24,1.66,5.24,4.46s-1.9,4.44-5.24,4.44Zm2.79-1.62c2.45,0,3.45-1,3.45-2.82s-1-2.84-3.45-2.84H105v5.66Z"/><path class="cls-1" d="M120,77.74c-3.19,0-5.22-1.92-5.22-6.57V69.58c0-4.65,2-6.57,5.22-6.57s5.21,1.92,5.21,6.57v1.59C125.19,75.82,123.17,77.74,120,77.74Zm-3.42-6.57c0,3.56,1.21,4.94,3.42,4.94s3.42-1.38,3.42-4.94V69.58c0-3.57-1.21-4.94-3.42-4.94s-3.42,1.37-3.42,4.94Z"/><path class="cls-1" d="M126.45,80.28V75.94h.62a4.7,4.7,0,0,0,1.53-2.48,26.41,26.41,0,0,0,.68-7V63.18h8.64V75.94h1.79v4.34h-1.79V77.57h-9.68v2.71Zm2.92-4.34h6.76V64.8h-5v1.67a26,26,0,0,1-.88,7.85A5.15,5.15,0,0,1,129.37,75.94Z"/></svg>