<svg id="Слой_1" data-name="Слой 1" xmlns="http://www.w3.org/2000/svg" xmlns:xlink="http://www.w3.org/1999/xlink" viewBox="0 0 219.69 94.53"><defs><style>.cls-1{fill:#3c424e;}.cls-2{fill:url(#linear-gradient);}</style><linearGradient id="linear-gradient" x1="8.49" y1="74.99" x2="67.23" y2="16.24" gradientUnits="userSpaceOnUse"><stop offset="0" stop-color="#00a04f"/><stop offset="1" stop-color="#118fcf"/></linearGradient></defs><path class="cls-1" d="M66,40.62V39.2c-3.25-.11-4.6-1.68-4.6-4.56s1.41-4.36,4.6-4.47v-1h1.18v1c3.19.11,4.58,1.59,4.58,4.47s-1.33,4.45-4.58,4.56v1.42Zm0-9.45c-2.66.07-3.42,1.37-3.42,3.52s.83,3.44,3.42,3.5Zm1.18,7c2.57-.06,3.41-1.35,3.41-3.5s-.76-3.45-3.41-3.52Z"/><path class="cls-1" d="M81.47,35.05c0,2.2,0,3.45-1,4.46a4.06,4.06,0,0,1-5.64,0c-1-1-1-2.26-1-4.46v-.86a4.84,4.84,0,0,1,1-3.6,4,4,0,0,1,5.64,0,5,5,0,0,1,1,3.7Zm-1.18-.59c0-1.3-.05-2.45-.77-3.18a2.7,2.7,0,0,0-3.82,0c-.77.78-.77,1.92-.77,3.44v1.1a4.07,4.07,0,0,0,.77,3,2.7,2.7,0,0,0,3.82,0c.75-.76.77-2,.77-3.22Z"/><path class="cls-1" d="M88.08,36H85.15v4.54H84v-11h4.1a3.25,3.25,0,1,1,0,6.49ZM88,30.59H85.15V35H88a2.19,2.19,0,1,0,0-4.38Z"/><path class="cls-1" d="M101.85,40.56V32.18l-3,6.65h-1l-3.06-6.65v8.38H93.58v-11h1.18l3.59,7.82,3.5-7.82H103v11Z"/><path class="cls-1" d="M112.58,40.56v-9l-5.61,9h-1.11v-11H107v9l5.6-9h1.12v11Z"/><path class="cls-1" d="M120.69,36h-2.93v4.54h-1.18v-11h4.11a3.25,3.25,0,1,1,0,6.49Zm-.11-5.43h-2.82V35h2.82a2.19,2.19,0,1,0,0-4.38Z"/><path class="cls-1" d="M133.69,35.05c0,2.2,0,3.45-1,4.46a4.06,4.06,0,0,1-5.64,0c-1-1-1-2.26-1-4.46v-.86a4.83,4.83,0,0,1,1-3.6,4,4,0,0,1,5.64,0,5,5,0,0,1,1,3.7Zm-1.18-.59c0-1.3,0-2.45-.77-3.18a2.69,2.69,0,0,0-3.81,0c-.78.78-.78,1.92-.78,3.44v1.1a4.07,4.07,0,0,0,.78,3,2.69,2.69,0,0,0,3.81,0c.76-.76.77-2,.77-3.22Z"/><path class="cls-1" d="M140.49,40.56H136.2v-11h4.15c2,0,3.26,1.16,3.26,2.9a2.59,2.59,0,0,1-.81,2,2.18,2.18,0,0,1-.82.51,2.62,2.62,0,0,1,1,.61,2.71,2.71,0,0,1,.82,2C143.78,39.41,142.54,40.56,140.49,40.56Zm-.23-10h-2.88v3.82h2.88c1.36,0,2.17-.71,2.17-1.92S141.62,30.59,140.26,30.59Zm.12,4.87h-3v4h3a2,2,0,1,0,0-4Z"/><path class="cls-1" d="M152.89,40.56,152,38.07h-4.81l-.89,2.49h-1.25l4.06-11h1l4,11Zm-3.27-9.34L147.54,37h4.12Z"/><path class="cls-1" d="M162.43,40.56v-5H157.2v5H156v-11h1.18v4.94h5.23V29.53h1.18v11Z"/><path class="cls-1" d="M173.16,40.56v-9l-5.61,9h-1.12v-11h1.18v9l5.61-9h1.11v11Z"/><path class="cls-1" d="M177.15,40.56v-11H184v1.06h-5.67v3.88h4.83v1.06h-4.83v4H184v1.05Z"/><path class="cls-1" d="M61.52,59.34v-11H62.7v5.25l4.73-5.25h1.48l-4.83,5.23,5.25,5.8H67.77L62.7,53.59v5.75Z"/><path class="cls-1" d="M77.7,53.82c0,2.2,0,3.45-1,4.46a4,4,0,0,1-5.63,0c-1-1-1-2.26-1-4.46V53a4.81,4.81,0,0,1,1-3.61,4,4,0,0,1,5.63,0,5,5,0,0,1,1,3.7Zm-1.18-.59c0-1.3,0-2.45-.77-3.17a2.69,2.69,0,0,0-3.81,0c-.78.77-.78,1.92-.78,3.44v1.09a4.06,4.06,0,0,0,.78,3,2.69,2.69,0,0,0,3.81,0c.76-.75.77-1.95.77-3.22Z"/><path class="cls-1" d="M88.48,59.34V51l-3,6.65h-1L81.39,51v8.39H80.21v-11h1.18L85,56.13l3.5-7.82h1.18v11Z"/><path class="cls-1" d="M96.45,59.4V58c-3.25-.11-4.6-1.67-4.6-4.55s1.41-4.37,4.6-4.48v-1h1.18v1c3.19.11,4.58,1.6,4.58,4.48s-1.33,4.44-4.58,4.55V59.4Zm0-9.45C93.79,50,93,51.31,93,53.46s.83,3.44,3.42,3.51Zm1.18,7c2.57-.07,3.41-1.35,3.41-3.51S100.28,50,97.63,50Z"/><path class="cls-1" d="M111.93,53.82c0,2.2,0,3.45-1,4.46a4,4,0,0,1-5.64,0c-1-1-1-2.26-1-4.46V53a4.81,4.81,0,0,1,1-3.61,4,4,0,0,1,5.64,0,5,5,0,0,1,1,3.7Zm-1.18-.59c0-1.3,0-2.45-.78-3.17a2.69,2.69,0,0,0-3.81,0c-.77.77-.77,1.92-.77,3.44v1.09a4.06,4.06,0,0,0,.77,3,2.69,2.69,0,0,0,3.81,0c.76-.75.78-1.95.78-3.22Z"/><path class="cls-1" d="M118.54,54.8h-2.93v4.54h-1.17v-11h4.1a3.25,3.25,0,1,1,0,6.49Zm-.11-5.44h-2.82v4.38h2.82a2.19,2.19,0,1,0,0-4.38Z"/><path class="cls-1" d="M127.59,49.36v10h-1.18v-10h-3.19v-1h7.56v1Z"/><path class="cls-1" d="M139.19,59.34v-5H134v5h-1.17v-11H134v4.94h5.24V48.31h1.18v11Z"/><path class="cls-1" d="M150.59,53.82c0,2.2,0,3.45-1,4.46a4,4,0,0,1-5.63,0c-1-1-1-2.26-1-4.46V53a4.81,4.81,0,0,1,1-3.61,4,4,0,0,1,5.63,0c1,1,1,2.35,1,3.7Zm-1.17-.59c0-1.3,0-2.45-.78-3.17a2.69,2.69,0,0,0-3.81,0c-.77.77-.77,1.92-.77,3.44v1.09a4.06,4.06,0,0,0,.77,3,2.69,2.69,0,0,0,3.81,0c.76-.75.78-1.95.78-3.22Z"/><path class="cls-1" d="M159.83,59.34v-9l-5.61,9H153.1v-11h1.18v9l5.61-9H161v11Zm-2.78-11.73a2,2,0,0,1-2.26-2h1a1.28,1.28,0,0,0,2.54,0h1A2,2,0,0,1,157.05,47.61Z"/><path class="cls-1" d="M63.66,69V78.1H61.51v-11h6.94V69Z"/><path class="cls-1" d="M77.79,73c0,1.44,0,2.88-1.1,4a4,4,0,0,1-3,1.2,4.07,4.07,0,0,1-3-1.2c-1.07-1.1-1.08-2.75-1.08-3.94v-.91c0-2.2.23-3.09,1.08-4a4.08,4.08,0,0,1,3-1.21,4,4,0,0,1,3,1.21c.78.79,1.1,1.84,1.1,3.62Zm-2.69-3.5a1.77,1.77,0,0,0-1.38-.59,1.79,1.79,0,0,0-1.39.59c-.5.54-.53,1.58-.53,2.94V73c0,1.15,0,2.18.53,2.69a1.87,1.87,0,0,0,1.39.59,1.77,1.77,0,0,0,1.38-.59c.45-.51.54-1.05.54-3.29C75.64,70.57,75.53,70,75.1,69.49Z"/><path class="cls-1" d="M84,67.07A3.45,3.45,0,1,1,84,74H81.92V78.1H79.76v-11ZM83.93,72a1.46,1.46,0,0,0,1.6-1.5A1.48,1.48,0,0,0,83.93,69h-2v3Z"/><path class="cls-1" d="M97.28,73c0,1.44,0,2.88-1.1,4a4,4,0,0,1-3,1.2,4.07,4.07,0,0,1-3-1.2c-1.07-1.1-1.08-2.75-1.08-3.94v-.91c0-2.2.23-3.09,1.08-4a4.29,4.29,0,0,1,6,0c.77.79,1.1,1.84,1.1,3.62Zm-2.7-3.5a1.77,1.77,0,0,0-1.38-.59,1.79,1.79,0,0,0-1.39.59c-.5.54-.53,1.58-.53,2.94V73c0,1.15,0,2.18.53,2.69a1.87,1.87,0,0,0,1.39.59,1.77,1.77,0,0,0,1.38-.59c.45-.51.54-1.05.54-3.29C95.12,70.57,95,70,94.58,69.49Z"/><path class="cls-1" d="M106.57,80.55V78.1h-6.12v2.45H98.37V76.18h1a12.34,12.34,0,0,0,1.32-6.29V67.07h6.64v9.11h1.27v4.37ZM105.22,69h-2.43v1.6a12.58,12.58,0,0,1-1,5.59h3.41Z"/><path class="cls-1" d="M113.92,78.19a4.09,4.09,0,0,1-3-1.2c-1.11-1.12-1.08-2.5-1.08-4.4s0-3.29,1.08-4.4a4.06,4.06,0,0,1,3-1.21A3.89,3.89,0,0,1,118,70.46h-2.19a1.91,1.91,0,0,0-3.24-1c-.41.47-.54,1-.54,3.12s.13,2.65.54,3.11a1.77,1.77,0,0,0,1.38.57,1.82,1.82,0,0,0,1.86-1.56H118A3.9,3.9,0,0,1,113.92,78.19Z"/><path class="cls-1" d="M119.64,78.1v-11h2.16v5.24l3.56-5.24h2.57l-3.7,5.18,4.07,5.85h-2.63l-3.87-5.76V78.1Z"/><path class="cls-1" d="M136.77,73c0,1.44,0,2.88-1.1,4a4,4,0,0,1-3,1.2,4.07,4.07,0,0,1-3-1.2c-1.07-1.1-1.08-2.75-1.08-3.94v-.91c0-2.2.23-3.09,1.08-4a4.29,4.29,0,0,1,6,0c.77.79,1.1,1.84,1.1,3.62Zm-2.7-3.5a1.77,1.77,0,0,0-1.38-.59,1.79,1.79,0,0,0-1.39.59c-.5.54-.53,1.58-.53,2.94V73c0,1.15,0,2.18.53,2.69a1.87,1.87,0,0,0,1.39.59,1.77,1.77,0,0,0,1.38-.59c.45-.51.54-1.05.54-3.29C134.61,70.57,134.5,70,134.07,69.49Z"/><path class="cls-1" d="M145,78.1V71l-4.29,7.08h-1.92v-11h2.15v7.07l4.29-7.07h1.92v11Zm-2-11.62a2.23,2.23,0,0,1-2.51-2.21h1.52a1,1,0,0,0,2,0h1.51A2.22,2.22,0,0,1,142.93,66.48Z"/><path class="cls-1" d="M157.26,78.19a4.05,4.05,0,0,1-3-1.2c-1.12-1.12-1.09-2.5-1.09-4.4s0-3.29,1.09-4.4a4,4,0,0,1,3-1.21,3.89,3.89,0,0,1,4.06,3.48h-2.18a1.83,1.83,0,0,0-1.86-1.56,1.8,1.8,0,0,0-1.38.57c-.42.47-.54,1-.54,3.12s.12,2.65.54,3.11a1.77,1.77,0,0,0,1.38.57,1.83,1.83,0,0,0,1.86-1.56h2.18A3.89,3.89,0,0,1,157.26,78.19Z"/><path class="cls-1" d="M167.25,67.07a3.45,3.45,0,1,1,0,6.88h-2.12V78.1H163v-11ZM167.14,72a1.46,1.46,0,0,0,1.6-1.5,1.48,1.48,0,0,0-1.6-1.52h-2v3Z"/><path class="cls-1" d="M172.52,78.1v-11h7.27V69h-5.11v2.59H179V73.5h-4.35v2.68h5.11V78.1Z"/><path class="cls-1" d="M189.26,80.55V78.1h-6.12v2.45h-2.08V76.18h1a12.34,12.34,0,0,0,1.32-6.29V67.07h6.64v9.11h1.27v4.37ZM187.91,69h-2.43v1.6a12.58,12.58,0,0,1-1,5.59h3.41Z"/><path class="cls-1" d="M197.26,78.1h-4.34v-11h2.15v4.15h2.19a3.44,3.44,0,1,1,0,6.88Zm-.17-5h-2v3h2a1.52,1.52,0,1,0,0-3Zm4.94,5v-11h2.15v11Z"/><path class="cls-2" d="M25.83,78.2H24V70.52A10.34,10.34,0,0,1,15.5,60.37V43.47A10.34,10.34,0,0,1,24,33.32V22.06l26.29-11.5V70.69H32.4V66.94H46.48V16.3L27.71,24.52v8.8a10.34,10.34,0,0,1,8.45,10.15V57.08a6.11,6.11,0,0,1-12.21,0V37.17a6.59,6.59,0,0,0-4.69,6.3v16.9a6.58,6.58,0,0,0,6.57,6.57h1.88V78.2Zm1.88-41V57.08a2.35,2.35,0,1,0,4.69,0V43.47A6.59,6.59,0,0,0,27.71,37.17Z"/></svg>