<?xml version="1.0" encoding="UTF-8"?>
<!DOCTYPE svg PUBLIC "-//W3C//DTD SVG 1.1//EN" "http://www.w3.org/Graphics/SVG/1.1/DTD/svg11.dtd">
<!-- Creator: CorelDRAW -->
<svg xmlns="http://www.w3.org/2000/svg" xml:space="preserve" width="317.5mm" height="139.7mm" version="1.1" style="shape-rendering:geometricPrecision; text-rendering:geometricPrecision; image-rendering:optimizeQuality; fill-rule:evenodd; clip-rule:evenodd"
viewBox="0 0 31750 13970"
 xmlns:xlink="http://www.w3.org/1999/xlink"
 xmlns:xodm="http://www.corel.com/coreldraw/odm/2003">
 <defs>
  <style type="text/css">
   <![CDATA[
    .fil0 {fill:#444D57;fill-rule:nonzero}
    .fil1 {fill:url(#id0)}
   ]]>
  </style>
  <linearGradient id="id0" gradientUnits="userSpaceOnUse" x1="-1297" y1="13002" x2="10425" y2="1279">
   <stop offset="0" style="stop-opacity:1; stop-color:#14A355"/>
   <stop offset="1" style="stop-opacity:1; stop-color:#2091CF"/>
  </linearGradient>
 </defs>
 <g id="Layer_x0020_1">
  <metadata id="CorelCorpID_0Corel-Layer"/>
  <path class="fil0" d="M9740 7250c411,-10 545,-215 545,-559 0,-344 -121,-552 -545,-562l0 1121zm-188 -1121c-426,10 -547,218 -547,562 0,344 134,550 547,559l0 -1121zm0 1510l0 -228c-520,-17 -735,-267 -735,-728 0,-460 225,-698 735,-715l0 -166 188 0 0 166c510,17 733,255 733,715 0,460 -213,710 -733,728l0 228 -188 0z"/>
  <path class="fil0" d="M11836 6653c0,-208 -7,-391 -124,-507 -82,-82 -191,-126 -304,-126 -114,0 -223,45 -304,126 -124,124 -124,307 -124,550l0 176c0,191 10,364 124,478 82,82 188,126 304,126 116,0 223,-45 304,-126 121,-121 124,-312 124,-515l0 -181zm188 94c0,352 -5,552 -166,713 -119,119 -275,183 -451,183 -176,0 -332,-64 -451,-183 -161,-161 -166,-361 -166,-713l0 -136c0,-210 15,-426 166,-577 119,-119 277,-183 451,-183 173,0 332,64 451,183 153,153 166,376 166,592l0 121z"/>
  <path class="fil0" d="M13064 6035l-450 0 0 701 450 0c235,0 374,-131 374,-352 0,-220 -139,-349 -374,-349zm17 869l-468 0 0 725 -188 0 0 -1762 656 0c327,0 545,208 545,517 0,312 -218,520 -545,520z"/>
  <polygon class="fil0" points="15282,7629 15282,6289 14799,7351 14638,7351 14148,6289 14148,7629 13960,7629 13960,5866 14148,5866 14722,7116 15282,5866 15470,5866 15470,7629 "/>
  <polygon class="fil0" points="16997,7629 16997,6190 16101,7629 15922,7629 15922,5866 16110,5866 16110,7302 17007,5866 17185,5866 17185,7629 "/>
  <path class="fil0" d="M18274 6035l-450 0 0 701 450 0c235,0 374,-131 374,-352 0,-220 -139,-349 -374,-349zm17 869l-468 0 0 725 -188 0 0 -1762 656 0c327,0 545,208 545,517 0,312 -218,520 -545,520z"/>
  <path class="fil0" d="M20182 6653c0,-208 -7,-391 -124,-507 -82,-82 -191,-126 -304,-126 -114,0 -223,45 -304,126 -124,124 -124,307 -124,550l0 176c0,191 10,364 124,478 82,82 188,126 304,126 116,0 223,-45 304,-126 121,-121 124,-312 124,-515l0 -181zm188 94c0,352 -5,552 -166,713 -119,119 -275,183 -451,183 -176,0 -332,-64 -451,-183 -161,-161 -166,-361 -166,-713l0 -136c0,-210 15,-426 166,-577 119,-119 277,-183 451,-183 173,0 332,64 451,183 153,153 166,376 166,592l0 121z"/>
  <path class="fil0" d="M21439 6814l-480 0 0 646 480 0c218,0 354,-126 354,-324 0,-198 -136,-322 -354,-322zm-20 -780l-460 0 0 611 460 0c218,0 347,-114 347,-307 0,-191 -129,-304 -347,-304zm37 1594l-686 0 0 -1762 663 0c312,0 520,186 520,463 0,126 -45,233 -129,312 -37,37 -64,52 -131,82 82,35 114,54 156,97 87,84 131,193 131,327 0,300 -198,483 -525,483z"/>
  <path class="fil0" d="M22915 6136l-332 931 658 0 -327 -931zm522 1493l-141 -399 -770 0 -141 399 -200 0 649 -1762 158 0 646 1762 -200 0z"/>
  <polygon class="fil0" points="24963,7629 24963,6824 24126,6824 24126,7629 23938,7629 23938,5866 24126,5866 24126,6656 24963,6656 24963,5866 25151,5866 25151,7629 "/>
  <polygon class="fil0" points="26676,7629 26676,6190 25780,7629 25602,7629 25602,5866 25790,5866 25790,7302 26686,5866 26864,5866 26864,7629 "/>
  <polygon class="fil0" points="27315,7629 27315,5866 28409,5866 28409,6035 27503,6035 27503,6656 28275,6656 28275,6824 27503,6824 27503,7460 28409,7460 28409,7629 "/>
  <polygon class="fil0" points="8838,10629 8838,8866 9026,8866 9026,9705 9781,8866 10019,8866 9246,9703 10085,10629 9835,10629 9026,9710 9026,10629 "/>
  <path class="fil0" d="M11235 9653c0,-208 -7,-391 -124,-507 -82,-82 -191,-126 -304,-126 -114,0 -223,45 -304,126 -124,124 -124,307 -124,550l0 176c0,191 10,364 124,478 82,82 188,126 304,126 116,0 223,-45 304,-126 121,-121 124,-312 124,-515l0 -181zm188 94c0,352 -5,552 -166,713 -119,119 -275,183 -451,183 -176,0 -332,-64 -451,-183 -161,-161 -166,-361 -166,-713l0 -136c0,-210 15,-426 166,-577 119,-119 277,-183 451,-183 173,0 332,64 451,183 153,153 166,376 166,592l0 121z"/>
  <polygon class="fil0" points="13146,10629 13146,9289 12663,10351 12502,10351 12012,9289 12012,10629 11824,10629 11824,8866 12012,8866 12587,10116 13146,8866 13334,8866 13334,10629 "/>
  <path class="fil0" d="M14607 10250c411,-10 545,-215 545,-559 0,-344 -121,-552 -545,-562l0 1121zm-188 -1121c-426,10 -547,218 -547,562 0,344 134,550 547,559l0 -1121zm0 1510l0 -228c-520,-17 -735,-267 -735,-728 0,-460 225,-698 735,-715l0 -166 188 0 0 166c510,17 733,255 733,715 0,460 -213,710 -733,728l0 228 -188 0z"/>
  <path class="fil0" d="M16704 9653c0,-208 -7,-391 -124,-507 -82,-82 -191,-126 -304,-126 -114,0 -223,45 -304,126 -124,124 -124,307 -124,550l0 176c0,191 10,364 124,478 82,82 188,126 304,126 116,0 223,-45 304,-126 121,-121 124,-312 124,-515l0 -181zm188 94c0,352 -5,552 -166,713 -119,119 -275,183 -451,183 -176,0 -332,-64 -451,-183 -161,-161 -166,-361 -166,-713l0 -136c0,-210 15,-426 166,-577 119,-119 277,-183 451,-183 173,0 332,64 451,183 153,153 166,376 166,592l0 121z"/>
  <path class="fil0" d="M17932 9035l-450 0 0 701 450 0c235,0 374,-131 374,-352 0,-220 -139,-349 -374,-349zm17 869l-468 0 0 725 -188 0 0 -1762 656 0c327,0 545,208 545,517 0,312 -218,520 -545,520z"/>
  <polygon class="fil0" points="19395,9035 19395,10629 19207,10629 19207,9035 18697,9035 18697,8866 19905,8866 19905,9035 "/>
  <polygon class="fil0" points="21249,10629 21249,9824 20412,9824 20412,10629 20224,10629 20224,8866 20412,8866 20412,9656 21249,9656 21249,8866 21437,8866 21437,10629 "/>
  <path class="fil0" d="M22882 9653c0,-208 -7,-391 -124,-507 -82,-82 -191,-126 -304,-126 -114,0 -223,45 -304,126 -124,124 -124,307 -124,550l0 176c0,191 10,364 124,478 82,82 188,126 304,126 116,0 223,-45 304,-126 121,-121 124,-312 124,-515l0 -181zm188 94c0,352 -5,552 -166,713 -119,119 -275,183 -450,183 -176,0 -332,-64 -451,-183 -161,-161 -166,-361 -166,-713l0 -136c0,-210 15,-426 166,-577 119,-119 277,-183 451,-183 173,0 332,64 450,183 154,153 166,376 166,592l0 121z"/>
  <path class="fil0" d="M24103 8755c-205,0 -347,-92 -361,-312l158 0c10,121 82,183 203,183 121,0 193,-62 203,-183l158 0c-15,220 -156,312 -361,312zm443 1874l0 -1438 -896 1438 -178 0 0 -1762 188 0 0 1436 896 -1436 178 0 0 1762 -188 0z"/>
  <polygon class="fil0" points="9180,12172 9180,13627 8836,13627 8836,11865 9945,11865 9945,12172 "/>
  <path class="fil0" d="M11007 12251c-54,-62 -131,-94 -220,-94 -89,0 -168,32 -223,94 -79,87 -84,252 -84,470l0 89c0,183 3,349 84,431 59,59 134,94 223,94 89,0 166,-32 220,-94 72,-82 87,-168 87,-527 0,-290 -17,-386 -87,-463zm431 559c0,230 -3,460 -176,639 -124,129 -285,193 -475,193 -191,0 -354,-67 -478,-193 -171,-176 -173,-438 -173,-629l0 -146c0,-352 37,-493 173,-631 124,-126 287,-193 478,-193 188,0 351,67 475,193 124,126 176,295 176,579l0 188z"/>
  <path class="fil0" d="M12418 12655c153,0 255,-94 255,-240 0,-146 -102,-243 -255,-243l-322 0 0 483 322 0zm17 -790c339,0 582,228 582,550 0,322 -240,550 -582,550l-339 0 0 663 -344 0 0 -1762 683 0z"/>
  <path class="fil0" d="M14120 12251c-54,-62 -131,-94 -220,-94 -89,0 -168,32 -223,94 -79,87 -84,252 -84,470l0 89c0,183 2,349 84,431 59,59 134,94 223,94 89,0 166,-32 220,-94 72,-82 87,-168 87,-527 0,-290 -17,-386 -87,-463zm431 559c0,230 -2,460 -176,639 -124,129 -285,193 -475,193 -191,0 -354,-67 -478,-193 -171,-176 -173,-438 -173,-629l0 -146c0,-352 37,-493 173,-631 124,-126 287,-193 478,-193 188,0 351,67 475,193 124,126 176,295 176,579l0 188z"/>
  <path class="fil0" d="M15820 12172l-389 0 0 255c0,349 -35,649 -156,894l545 0 0 -1149zm215 1847l0 -391 -978 0 0 391 -332 0 0 -698 166 0c146,-225 210,-599 210,-1005l0 -451 1062 0 0 1456 203 0 0 698 -332 0z"/>
  <path class="fil0" d="M17210 13642c-193,0 -352,-69 -475,-193 -178,-178 -173,-399 -173,-703 0,-304 -5,-525 173,-703 124,-124 282,-193 475,-193 329,0 587,188 649,557l-349 0c-35,-141 -124,-250 -297,-250 -94,0 -171,35 -220,92 -67,74 -87,158 -87,498 0,339 20,423 87,498 50,57 126,92 220,92 173,0 262,-109 297,-250l349 0c-62,369 -322,557 -649,557z"/>
  <polygon class="fil0" points="18125,13627 18125,11865 18469,11865 18469,12702 19038,11865 19449,11865 18858,12692 19509,13627 19088,13627 18469,12707 18469,13627 "/>
  <path class="fil0" d="M20430 12251c-54,-62 -131,-94 -220,-94 -89,0 -168,32 -223,94 -79,87 -84,252 -84,470l0 89c0,183 3,349 84,431 59,59 134,94 223,94 89,0 166,-32 220,-94 72,-82 87,-168 87,-527 0,-290 -17,-386 -87,-463zm431 559c0,230 -2,460 -176,639 -124,129 -285,193 -475,193 -191,0 -354,-67 -478,-193 -171,-176 -173,-438 -173,-629l0 -146c0,-352 37,-493 173,-631 124,-126 287,-193 478,-193 188,0 351,67 475,193 124,126 176,295 176,579l0 188z"/>
  <path class="fil0" d="M21847 11771c-196,0 -391,-87 -401,-354l243 0c7,109 69,153 158,153 89,0 151,-45 158,-153l243 0c-10,267 -205,354 -401,354zm322 1857l0 -1131 -686 1131 -307 0 0 -1762 344 0 0 1129 686 -1129 307 0 0 1762 -344 0z"/>
  <path class="fil0" d="M24136 13642c-193,0 -351,-69 -475,-193 -178,-178 -173,-399 -173,-703 0,-304 -5,-525 173,-703 124,-124 282,-193 475,-193 329,0 587,188 649,557l-349 0c-35,-141 -124,-250 -297,-250 -94,0 -171,35 -220,92 -67,74 -87,158 -87,498 0,339 20,423 87,498 50,57 126,92 220,92 173,0 262,-109 297,-250l349 0c-62,369 -322,557 -649,557z"/>
  <path class="fil0" d="M25715 12655c153,0 255,-94 255,-240 0,-146 -102,-243 -255,-243l-322 0 0 483 322 0zm17 -790c339,0 582,228 582,550 0,322 -240,550 -582,550l-339 0 0 663 -344 0 0 -1762 683 0z"/>
  <polygon class="fil0" points="26575,13627 26575,11865 27736,11865 27736,12172 26919,12172 26919,12585 27614,12585 27614,12892 26919,12892 26919,13320 27736,13320 27736,13627 "/>
  <path class="fil0" d="M29033 12172l-389 0 0 255c0,349 -35,649 -156,894l545 0 0 -1149zm215 1847l0 -391 -978 0 0 391 -332 0 0 -698 166 0c146,-225 210,-599 210,-1005l0 -451 1062 0 0 1456 203 0 0 698 -332 0z"/>
  <path class="fil0" d="M31290 11865l344 0 0 1762 -344 0 0 -1762zm-790 970l-322 0 0 485 322 0c156,0 255,-97 255,-243 0,-144 -99,-243 -255,-243zm27 792l-693 0 0 -1762 344 0 0 663 349 0c344,0 572,228 572,550 0,322 -230,550 -572,550z"/>
  <path class="fil1" d="M2539 5456l0 3973c0,258 210,468 468,468 258,0 468,-210 468,-468l0 -2716c0,-593 -396,-1095 -937,-1257zm-749 8187l749 0 0 -2248 -375 0c-723,0 -1311,-588 -1311,-1311l0 -3372c0,-593 396,-1095 937,-1257l0 3973c0,671 546,1218 1218,1218 671,0 1218,-546 1218,-1218l0 -2716c0,-1008 -728,-1850 -1686,-2026l0 -1756 3746 -1639 0 10104 -2810 0 0 749 3559 0 0 -11999 -5245 2295 0 2246c-958,177 -1686,1018 -1686,2026l0 3372c0,1008 728,1850 1686,2026l0 1533z"/>
 </g>
</svg>
